# xmcd
# 
# Track frame offsets:
#     150
#     12880
#     25320
#     35910
#     47990
#     61210
#     73258
#     85595
#     98385
#     111920
# 
# Disc length: 1622
# 
# Revision: 2
# Processed by: cddbd v1.5.2PL0 Copyright (c) Steve Scherf et al.
# Submitted via: BonkEnc v1.0.5
# 
DISCID=7f06540a
DTITLE=Jerry Butler - Greatest Hits
DYEAR=0
DGENRE=
TTITLE0=He Will Break Your Heart
TTITLE1=For Your Precious Love
TTITLE2=I'm A Telling You
TTITLE3=Make It Easy On Yourself
TTITLE4=Smile
TTITLE5=Moon River
TTITLE6=Find Another Girl
TTITLE7=Let It Be Me
TTITLE8=I Stand Accused
TTITLE9=Aware Of Love
EXTD=
EXTT0=
EXTT1=
EXTT2=
EXTT3=
EXTT4=
EXTT5=
EXTT6=
EXTT7=
EXTT8=
EXTT9=
PLAYORDER=
